<svg xmlns="http://www.w3.org/2000/svg" viewBox="0 0 232 425"><defs><style>.cls-1{fill:#ffc000;}.cls-2{fill:#fff;}</style></defs><title>alert-marker</title><g id="Layer_2" data-name="Layer 2"><g id="alert-marker"><path class="cls-1" d="M232,116A116,116,0,1,0,76.16,225L118,425l42.2-201.73A116,116,0,0,0,232,116Z"/><circle class="cls-2" cx="116" cy="116" r="79"/><path class="cls-1" d="M116,167.23a10.59,10.59,0,0,0,10.56-10.55H105.44A10.55,10.55,0,0,0,116,167.23Zm31.67-31.67V109.18c0-16.21-8.66-29.77-23.75-33.36V72.23a7.92,7.92,0,0,0-15.84,0v3.59c-15.14,3.59-23.75,17.1-23.75,33.36v26.38L73.78,146.12v5.28h84.44v-5.28Z"/></g></g></svg>